<svg width="32" height="32" viewBox="0 0 32 32" fill="none" xmlns="http://www.w3.org/2000/svg">
  <rect width="32" height="32" rx="6" fill="#6366f1"/>
  <path d="M8 16C8 13.2386 10.2386 11 13 11C13.5523 11 14 10.5523 14 10C14 8.34315 15.3431 7 17 7C18.6569 7 20 8.34315 20 10C20 10.5523 20.4477 11 21 11C23.7614 11 26 13.2386 26 16C26 18.7614 23.7614 21 21 21C20.4477 21 20 21.4477 20 22C20 23.6569 18.6569 25 17 25C15.3431 25 14 23.6569 14 22C14 21.4477 13.5523 21 13 21C10.2386 21 8 18.7614 8 16Z" fill="white"/>
  <circle cx="13.5" cy="14" r="1" fill="#6366f1"/>
  <circle cx="20.5" cy="14" r="1" fill="#6366f1"/>
  <path d="M13 17.5C13.8284 18.3284 15.0858 18.3284 15.9142 17.5" stroke="#6366f1" stroke-width="1.5" stroke-linecap="round"/>
</svg>